<svg width="45" height="46" viewBox="0 0 45 46" fill="none" xmlns="http://www.w3.org/2000/svg">
<g clip-path="url(#clip0_5_9)">
<path d="M42.5156 0H2.48438C1.11188 0 0 1.13658 0 2.53958V43.4623C0 44.8634 1.11188 46 2.48438 46H24.0375V28.1865H18.1725V21.2443H24.0375V16.1249C24.0375 10.1833 27.5869 6.94792 32.7731 6.94792C35.2575 6.94792 37.3913 7.13767 38.0138 7.222V13.432L34.4175 13.4339C31.5975 13.4339 31.0519 14.8043 31.0519 16.813V21.2463H37.7775L36.9019 28.1884H31.0519V46H42.5194C43.8881 46 45 44.8634 45 43.4604V2.53958C45 1.13658 43.8881 0 42.5156 0Z" fill="black"/>
</g>
<defs>
<clipPath id="clip0_5_9">
<rect width="45" height="46" fill="white"/>
</clipPath>
</defs>
</svg>
