<svg width="45" height="46" viewBox="0 0 45 46" fill="none" xmlns="http://www.w3.org/2000/svg">
<g clip-path="url(#clip0_5_13)">
<path d="M28.5619 10.5187C26.9812 10.4458 26.505 10.4305 22.5 10.4305C18.495 10.4305 18.0206 10.4458 16.44 10.5187C12.3712 10.7084 10.4756 12.6788 10.2919 16.8034C10.2188 18.4211 10.2019 18.906 10.2019 23C10.2019 27.094 10.2188 27.5789 10.29 29.1966C10.4756 33.3136 12.3638 35.2916 16.4381 35.4813C18.0188 35.5542 18.495 35.5714 22.5 35.5714C26.5069 35.5714 26.9812 35.5561 28.5619 35.4832C32.6306 35.2935 34.5244 33.3193 34.71 29.1985C34.7812 27.5808 34.7962 27.0959 34.7962 23.0019C34.7962 18.9079 34.7812 18.423 34.71 16.8072C34.5244 12.6807 32.6269 10.7084 28.5619 10.5187ZM22.5 30.8737C18.2456 30.8737 14.7975 27.3489 14.7975 23C14.7975 18.6511 18.2475 15.1263 22.5 15.1263C26.7525 15.1263 30.2025 18.6511 30.2025 23C30.2025 27.3489 26.7544 30.8737 22.5 30.8737ZM30.5081 16.6558C29.5144 16.6558 28.7081 15.8317 28.7081 14.8158C28.7081 13.8 29.5144 12.9758 30.5081 12.9758C31.5019 12.9758 32.3081 13.8 32.3081 14.8158C32.3081 15.8317 31.5019 16.6558 30.5081 16.6558ZM27.5006 23C27.5006 25.8232 25.2619 28.1117 22.5 28.1117C19.7381 28.1117 17.4994 25.8232 17.4994 23C17.4994 20.1768 19.7381 17.8883 22.5 17.8883C25.2619 17.8883 27.5006 20.1768 27.5006 23ZM35.625 0H9.375C4.19813 0 0 4.29142 0 9.58333V36.4167C0 41.7086 4.19813 46 9.375 46H35.625C40.8037 46 45 41.7086 45 36.4167V9.58333C45 4.29142 40.8037 0 35.625 0ZM37.41 29.3212C37.1625 34.8968 34.1269 37.9864 28.6856 38.2413C27.0844 38.3161 26.5744 38.3333 22.5 38.3333C18.4256 38.3333 17.9175 38.3161 16.3162 38.2413C10.8637 37.9864 7.84125 34.891 7.59 29.3212C7.51687 27.6863 7.5 27.1649 7.5 23C7.5 18.837 7.51687 18.3137 7.59 16.6788C7.84125 11.1052 10.8675 8.01358 16.3162 7.76058C17.9175 7.68392 18.4256 7.66667 22.5 7.66667C26.5744 7.66667 27.0844 7.68392 28.6856 7.75867C34.1381 8.01358 37.1662 11.1147 37.41 16.6769C37.4831 18.3137 37.5 18.837 37.5 23C37.5 27.1649 37.4831 27.6863 37.41 29.3212Z" fill="black"/>
</g>
<defs>
<clipPath id="clip0_5_13">
<rect width="45" height="46" fill="white"/>
</clipPath>
</defs>
</svg>
