<svg width="23" height="21" viewBox="0 0 23 21" fill="none" xmlns="http://www.w3.org/2000/svg">
<path d="M16.2586 11.6021C15.4392 11.6021 14.7749 10.9956 14.7749 10.2474V6.03828C14.7749 4.38949 13.3058 3.04816 11.5 3.04816C9.6942 3.04816 8.22508 4.38954 8.22508 6.03828V10.2474C8.22508 10.9956 7.56077 11.6021 6.74135 11.6021C5.92193 11.6021 5.25763 10.9956 5.25763 10.2474V6.03828C5.25763 2.89554 8.05797 0.338669 11.5001 0.338669C14.9422 0.338669 17.7424 2.8955 17.7424 6.0382V10.2473C17.7424 10.9956 17.0781 11.6021 16.2586 11.6021Z" fill="#C7CFE2"/>
<g opacity="0.1">
<path d="M6.74135 11.6021C7.56077 11.6021 8.22508 10.9956 8.22508 10.2474V7.22987H5.25763V10.2474C5.25763 10.9956 5.92193 11.6021 6.74135 11.6021Z" fill="black"/>
<path d="M14.775 7.22987V10.2474C14.775 10.9956 15.4393 11.6021 16.2587 11.6021C17.0781 11.6021 17.7424 10.9956 17.7424 10.2474V7.22987H14.775Z" fill="black"/>
</g>
<path d="M17.9364 8.58461H5.0636C4.29948 8.58461 3.68005 9.15022 3.68005 9.84785V19.3981C3.68005 20.0958 4.29948 20.6613 5.0636 20.6613H17.9364C18.7005 20.6613 19.32 20.0958 19.32 19.3981V9.84781C19.32 9.15017 18.7005 8.58461 17.9364 8.58461Z" fill="#FFD782"/>
<path opacity="0.1" d="M13.2047 13.7198C13.2047 12.8602 12.4415 12.1633 11.5 12.1633C10.5585 12.1633 9.79529 12.8602 9.79529 13.7198C9.79529 14.2167 10.0506 14.6589 10.4478 14.9439V17.9049H12.5522V14.9439C12.9493 14.6589 13.2047 14.2167 13.2047 13.7198Z" fill="black"/>
<path d="M10.4478 18.2436H12.5522C12.757 18.2436 12.9231 18.092 12.9231 17.9049V15.099C13.3399 14.7415 13.5756 14.2476 13.5756 13.7199C13.5756 12.6749 12.6445 11.8247 11.4999 11.8247C10.3554 11.8247 9.42432 12.6749 9.42432 13.7199C9.42432 14.2476 9.65998 14.7415 10.0768 15.099V17.9049C10.0769 18.0919 10.2429 18.2436 10.4478 18.2436ZM11.5 12.502C12.2354 12.502 12.8338 13.0483 12.8338 13.7198C12.8338 14.0956 12.6476 14.4447 12.323 14.6776C12.2335 14.7418 12.1813 14.84 12.1813 14.9439V17.5662H10.8187V14.9439C10.8187 14.84 10.7664 14.7418 10.677 14.6776C10.3524 14.4447 10.1662 14.0956 10.1662 13.7198C10.1662 13.0483 10.7646 12.502 11.5 12.502Z" fill="black"/>
<path d="M18.1133 8.25403V6.03824C18.1133 2.70875 15.1466 0 11.5001 0C7.85353 0 4.88671 2.70875 4.88671 6.03828V8.25407C4.00206 8.33532 3.30914 9.01909 3.30914 9.84785V10.6979C3.30914 10.8849 3.47522 11.0365 3.68006 11.0365C3.88491 11.0365 4.05098 10.8849 4.05098 10.6979V9.84785C4.05098 9.33803 4.50523 8.92332 5.06357 8.92332H17.9363C18.4947 8.92332 18.949 9.33807 18.949 9.84785V16.7794C18.949 16.9664 19.115 17.1181 19.3199 17.1181C19.5247 17.1181 19.6908 16.9664 19.6908 16.7794V9.84781C19.6909 9.01905 18.998 8.33532 18.1133 8.25403ZM14.404 8.2459H8.59604V6.03828C8.59604 4.57628 9.89878 3.38678 11.5001 3.38678C13.1013 3.38678 14.404 4.57624 14.404 6.03828L14.404 8.2459ZM15.1459 8.2459V6.03828C15.1459 4.20279 13.5104 2.70945 11.5001 2.70945C9.48976 2.70945 7.8542 4.20275 7.8542 6.03828V8.2459H5.62859V6.03828C5.62859 3.08224 8.2625 0.677373 11.5001 0.677373C14.7376 0.677373 17.3715 3.08224 17.3715 6.03828V8.2459H15.1459Z" fill="black"/>
<path d="M19.3199 17.7954C19.1151 17.7954 18.949 17.947 18.949 18.1341V19.398C18.949 19.9078 18.4948 20.3226 17.9364 20.3226H5.06357C4.50519 20.3226 4.05098 19.9078 4.05098 19.398V12.0525C4.05098 11.8655 3.88491 11.7139 3.68006 11.7139C3.47522 11.7139 3.30914 11.8655 3.30914 12.0525V19.3981C3.30914 20.2814 4.09622 21 5.06361 21H17.9364C18.9038 21 19.6909 20.2814 19.6909 19.3981V18.1341C19.6908 17.947 19.5248 17.7954 19.3199 17.7954Z" fill="black"/>
</svg>
