<svg width="45" height="46" viewBox="0 0 45 46" fill="none" xmlns="http://www.w3.org/2000/svg">
<g clip-path="url(#clip0_5_11)">
<path fill-rule="evenodd" clip-rule="evenodd" d="M22.5 0C10.0763 0 0 10.2963 0 23C0 35.7017 10.0763 46 22.5 46C34.9256 46 45 35.7017 45 23C45 10.2963 34.9256 0 22.5 0ZM33.7519 32.4242C34.7869 32.4242 35.625 31.5656 35.625 30.5095V15.3314C35.625 14.2753 34.785 13.4167 33.7519 13.4167H11.2481C10.215 13.4167 9.375 14.2753 9.375 15.3314V30.5095C9.375 31.5656 10.215 32.4242 11.2481 32.4242H33.7519ZM22.5 25.6201L12.2812 18.3713L12.2606 31.3049H32.6963V18.3713L22.5 25.6201ZM32.2012 14.5341C29.3381 16.5734 22.5 21.4993 22.5 21.4993L12.7444 14.5341H32.2012Z" fill="black"/>
</g>
<defs>
<clipPath id="clip0_5_11">
<rect width="45" height="46" fill="white"/>
</clipPath>
</defs>
</svg>
