<svg width="23" height="23" viewBox="0 0 23 23" fill="none" xmlns="http://www.w3.org/2000/svg">
<g clip-path="url(#clip0_30_7)">
<path d="M19.4062 0H3.59375C2.64063 0 1.72654 0.378626 1.05259 1.05259C0.378626 1.72654 0 2.64063 0 3.59375V19.4062C0 20.3594 0.378626 21.2735 1.05259 21.9474C1.72654 22.6214 2.64063 23 3.59375 23H19.4062C20.3594 23 21.2735 22.6214 21.9474 21.9474C22.6214 21.2735 23 20.3594 23 19.4062V3.59375C23 2.64063 22.6214 1.72654 21.9474 1.05259C21.2735 0.378626 20.3594 0 19.4062 0ZM3.59375 1.4375H19.4062C19.9781 1.4375 20.5266 1.66468 20.931 2.06905C21.3353 2.47343 21.5625 3.02188 21.5625 3.59375V7.1875H1.4375V3.59375C1.4375 3.02188 1.66468 2.47343 2.06905 2.06905C2.47343 1.66468 3.02188 1.4375 3.59375 1.4375ZM19.4062 21.5625H3.59375C3.02188 21.5625 2.47343 21.3353 2.06905 20.931C1.66468 20.5266 1.4375 19.9781 1.4375 19.4062V8.625H21.5625V19.4062C21.5625 19.9781 21.3353 20.5266 20.931 20.931C20.5266 21.3353 19.9781 21.5625 19.4062 21.5625ZM20.125 10.7812C20.125 10.9719 20.0493 11.1547 19.9145 11.2895C19.7797 11.4243 19.5969 11.5 19.4062 11.5H15.8125V19.4062C15.8125 19.5969 15.7368 19.7797 15.602 19.9145C15.4672 20.0493 15.2844 20.125 15.0938 20.125C14.9031 20.125 14.7203 20.0493 14.5855 19.9145C14.4507 19.7797 14.375 19.5969 14.375 19.4062V10.7812C14.375 10.5906 14.4507 10.4078 14.5855 10.273C14.7203 10.1382 14.9031 10.0625 15.0938 10.0625H19.4062C19.5969 10.0625 19.7797 10.1382 19.9145 10.273C20.0493 10.4078 20.125 10.5906 20.125 10.7812ZM12.9375 10.7812C12.9375 10.9719 12.8618 11.1547 12.727 11.2895C12.5922 11.4243 12.4094 11.5 12.2188 11.5H10.0625V13.6562C10.0625 13.8469 9.98678 14.0297 9.85198 14.1645C9.71719 14.2993 9.53437 14.375 9.34375 14.375C9.15313 14.375 8.97031 14.2993 8.83552 14.1645C8.70072 14.0297 8.625 13.8469 8.625 13.6562V10.7812C8.625 10.5906 8.70072 10.4078 8.83552 10.273C8.97031 10.1382 9.15313 10.0625 9.34375 10.0625H12.2188C12.4094 10.0625 12.5922 10.1382 12.727 10.273C12.8618 10.4078 12.9375 10.5906 12.9375 10.7812ZM7.1875 10.7812C7.1875 10.9719 7.11178 11.1547 6.97698 11.2895C6.84219 11.4243 6.65937 11.5 6.46875 11.5H4.3125V13.6562C4.3125 13.8469 4.23678 14.0297 4.10198 14.1645C3.96719 14.2993 3.78437 14.375 3.59375 14.375C3.40313 14.375 3.22031 14.2993 3.08552 14.1645C2.95072 14.0297 2.875 13.8469 2.875 13.6562V10.7812C2.875 10.5906 2.95072 10.4078 3.08552 10.273C3.22031 10.1382 3.40313 10.0625 3.59375 10.0625H6.46875C6.65937 10.0625 6.84219 10.1382 6.97698 10.273C7.11178 10.4078 7.1875 10.5906 7.1875 10.7812ZM12.9375 16.5312C12.9375 16.7219 12.8618 16.9047 12.727 17.0395C12.5922 17.1743 12.4094 17.25 12.2188 17.25H10.0625V19.4062C10.0625 19.5969 9.98678 19.7797 9.85198 19.9145C9.71719 20.0493 9.53437 20.125 9.34375 20.125C9.15313 20.125 8.97031 20.0493 8.83552 19.9145C8.70072 19.7797 8.625 19.5969 8.625 19.4062V16.5312C8.625 16.3406 8.70072 16.1578 8.83552 16.023C8.97031 15.8882 9.15313 15.8125 9.34375 15.8125H12.2188C12.4094 15.8125 12.5922 15.8882 12.727 16.023C12.8618 16.1578 12.9375 16.3406 12.9375 16.5312ZM7.1875 16.5312C7.1875 16.7219 7.11178 16.9047 6.97698 17.0395C6.84219 17.1743 6.65937 17.25 6.46875 17.25H4.3125V19.4062C4.3125 19.5969 4.23678 19.7797 4.10198 19.9145C3.96719 20.0493 3.78437 20.125 3.59375 20.125C3.40313 20.125 3.22031 20.0493 3.08552 19.9145C2.95072 19.7797 2.875 19.5969 2.875 19.4062V16.5312C2.875 16.3406 2.95072 16.1578 3.08552 16.023C3.22031 15.8882 3.40313 15.8125 3.59375 15.8125H6.46875C6.65937 15.8125 6.84219 15.8882 6.97698 16.023C7.11178 16.1578 7.1875 16.3406 7.1875 16.5312Z" fill="#FDFDFD"/>
</g>
<defs>
<clipPath id="clip0_30_7">
<rect width="23" height="23" fill="white"/>
</clipPath>
</defs>
</svg>
