<svg width="23" height="23" viewBox="0 0 23 23" fill="none" xmlns="http://www.w3.org/2000/svg">
<path d="M16.7988 7.44624C16.7317 7.43666 16.6646 7.43666 16.5975 7.44624C15.1121 7.39832 13.9333 6.18124 13.9333 4.68624C13.9333 3.16249 15.1696 1.91666 16.7029 1.91666C18.2267 1.91666 19.4725 3.15291 19.4725 4.68624C19.4629 6.18124 18.2842 7.39832 16.7988 7.44624Z" fill="white"/>
<path d="M19.9253 14.0879C18.852 14.8066 17.3474 15.075 15.9578 14.8929C16.322 14.1071 16.5137 13.235 16.5232 12.315C16.5232 11.3566 16.3124 10.4462 15.9099 9.6508C17.3282 9.45914 18.8328 9.72747 19.9157 10.4462C21.4299 11.4429 21.4299 13.0816 19.9253 14.0879Z" fill="white"/>
<path d="M6.17173 7.44624C6.23882 7.43666 6.3059 7.43666 6.37298 7.44624C7.8584 7.39832 9.03715 6.18124 9.03715 4.68624C9.03715 3.15291 7.8009 1.91666 6.26757 1.91666C4.74382 1.91666 3.50757 3.15291 3.50757 4.68624C3.50757 6.18124 4.68632 7.39832 6.17173 7.44624Z" fill="white"/>
<path d="M6.27805 12.3152C6.27805 13.2447 6.4793 14.1264 6.84347 14.9218C5.49222 15.0656 4.08347 14.7781 3.04847 14.0977C1.5343 13.0914 1.5343 11.4527 3.04847 10.4464C4.07388 9.7564 5.52097 9.47848 6.8818 9.63182C6.48888 10.4368 6.27805 11.3472 6.27805 12.3152Z" fill="white"/>
<path d="M11.6158 15.2087C11.5392 15.1992 11.4529 15.1992 11.3667 15.2087C9.60335 15.1512 8.19458 13.7042 8.19458 11.9217C8.20416 10.1008 9.67043 8.625 11.5008 8.625C13.3217 8.625 14.7975 10.1008 14.7975 11.9217C14.7879 13.7042 13.3888 15.1512 11.6158 15.2087Z" fill="white"/>
<path d="M8.50108 17.1931C7.054 18.161 7.054 19.7518 8.50108 20.7102C10.1494 21.8122 12.8519 21.8122 14.5003 20.7102C15.9474 19.7422 15.9474 18.1514 14.5003 17.1931C12.8615 16.091 10.159 16.091 8.50108 17.1931Z" fill="white"/>
</svg>
