<svg width="23" height="23" viewBox="0 0 23 23" fill="none" xmlns="http://www.w3.org/2000/svg">
<g clip-path="url(#clip0_30_5)">
<path d="M7.1875 15.8125C7.95 15.8125 8.68126 15.5096 9.22043 14.9704C9.7596 14.4313 10.0625 13.7 10.0625 12.9375C10.0625 12.175 9.7596 11.4437 9.22043 10.9046C8.68126 10.3654 7.95 10.0625 7.1875 10.0625C6.425 10.0625 5.69374 10.3654 5.15457 10.9046C4.6154 11.4437 4.3125 12.175 4.3125 12.9375C4.3125 13.7 4.6154 14.4313 5.15457 14.9704C5.69374 15.5096 6.425 15.8125 7.1875 15.8125ZM7.1875 11.5C7.56875 11.5 7.93438 11.6515 8.20397 11.921C8.47355 12.1906 8.625 12.5563 8.625 12.9375C8.625 13.3187 8.47355 13.6844 8.20397 13.954C7.93438 14.2235 7.56875 14.375 7.1875 14.375C6.80625 14.375 6.44062 14.2235 6.17103 13.954C5.90145 13.6844 5.75 13.3187 5.75 12.9375C5.75 12.5563 5.90145 12.1906 6.17103 11.921C6.44062 11.6515 6.80625 11.5 7.1875 11.5ZM10.7812 17.25H3.59375C2.64063 17.25 1.72654 17.6286 1.05259 18.3026C0.378626 18.9765 0 19.8906 0 20.8438C0 21.4156 0.227177 21.9641 0.631552 22.3685C1.03593 22.7728 1.58438 23 2.15625 23H12.2188C12.7906 23 13.3391 22.7728 13.7434 22.3685C14.1478 21.9641 14.375 21.4156 14.375 20.8438C14.375 19.8906 13.9964 18.9765 13.3224 18.3026C12.6485 17.6286 11.7344 17.25 10.7812 17.25ZM12.2188 21.5625H2.15625C1.96563 21.5625 1.78281 21.4868 1.64802 21.352C1.51322 21.2172 1.4375 21.0344 1.4375 20.8438C1.4375 20.2719 1.66468 19.7234 2.06905 19.319C2.47343 18.9147 3.02188 18.6875 3.59375 18.6875H10.7812C11.3531 18.6875 11.9016 18.9147 12.3059 19.319C12.7103 19.7234 12.9375 20.2719 12.9375 20.8438C12.9375 21.0344 12.8618 21.2172 12.727 21.352C12.5922 21.4868 12.4094 21.5625 12.2188 21.5625ZM23 3.59375V10.7812C23 11.7344 22.6214 12.6485 21.9474 13.3224C21.2735 13.9964 20.3594 14.375 19.4062 14.375H15.3913L12.7276 17.0401C12.6608 17.1068 12.5814 17.1597 12.4941 17.1957C12.4068 17.2317 12.3132 17.2502 12.2188 17.25C12.1245 17.2502 12.0312 17.2317 11.9442 17.1954C11.8127 17.141 11.7004 17.0489 11.6213 16.9307C11.5422 16.8125 11.5 16.6735 11.5 16.5312V13.6562C11.5 13.4656 11.5757 13.2828 11.7105 13.148C11.8453 13.0132 12.0281 12.9375 12.2188 12.9375C12.4094 12.9375 12.5922 13.0132 12.727 13.148C12.8618 13.2828 12.9375 13.4656 12.9375 13.6562V14.7962L14.5849 13.1474C14.6517 13.0807 14.7311 13.0278 14.8184 12.9918C14.9057 12.9558 14.9993 12.9373 15.0938 12.9375H19.4062C19.9781 12.9375 20.5266 12.7103 20.931 12.3059C21.3353 11.9016 21.5625 11.3531 21.5625 10.7812V3.59375C21.5625 3.02188 21.3353 2.47343 20.931 2.06905C20.5266 1.66468 19.9781 1.4375 19.4062 1.4375H9.34375C8.77188 1.4375 8.22343 1.66468 7.81905 2.06905C7.41468 2.47343 7.1875 3.02188 7.1875 3.59375V7.90625C7.1875 8.09687 7.11178 8.27969 6.97698 8.41448C6.84219 8.54927 6.65937 8.625 6.46875 8.625C6.27813 8.625 6.09531 8.54927 5.96052 8.41448C5.82572 8.27969 5.75 8.09687 5.75 7.90625V3.59375C5.75 2.64063 6.12863 1.72654 6.80259 1.05259C7.47654 0.378626 8.39063 0 9.34375 0L19.4062 0C20.3594 0 21.2735 0.378626 21.9474 1.05259C22.6214 1.72654 23 2.64063 23 3.59375ZM11.7099 8.83488L14.7962 5.75H12.2188C12.0281 5.75 11.8453 5.67427 11.7105 5.53948C11.5757 5.40469 11.5 5.22187 11.5 5.03125C11.5 4.84063 11.5757 4.65781 11.7105 4.52302C11.8453 4.38823 12.0281 4.3125 12.2188 4.3125H16.5312C16.6255 4.31254 16.7188 4.3311 16.8058 4.36713C16.9817 4.44088 17.1216 4.58078 17.1954 4.75669C17.2314 4.84374 17.25 4.93703 17.25 5.03125V9.34375C17.25 9.53437 17.1743 9.71719 17.0395 9.85198C16.9047 9.98677 16.7219 10.0625 16.5312 10.0625C16.3406 10.0625 16.1578 9.98677 16.023 9.85198C15.8882 9.71719 15.8125 9.53437 15.8125 9.34375V6.76631L12.7276 9.85262C12.6608 9.91933 12.5814 9.9722 12.4941 10.0082C12.4068 10.0442 12.3132 10.0627 12.2188 10.0625C12.1243 10.0627 12.0307 10.0442 11.9434 10.0082C11.8561 9.9722 11.7767 9.91933 11.7099 9.85262C11.6429 9.78586 11.5898 9.70654 11.5536 9.61922C11.5174 9.5319 11.4987 9.43829 11.4987 9.34375C11.4987 9.24921 11.5174 9.1556 11.5536 9.06828C11.5898 8.98096 11.6429 8.90164 11.7099 8.83488Z" fill="white"/>
</g>
<defs>
<clipPath id="clip0_30_5">
<rect width="23" height="23" fill="white"/>
</clipPath>
</defs>
</svg>
